<svg id="Layer_1" data-name="Layer 1" xmlns="http://www.w3.org/2000/svg" viewBox="0 0 105 105"><defs><style>.cls-1{fill:#adadad;}.cls-2{fill:#fff;}.cls-3{fill:#2a664c;}</style></defs><title>logo-v2</title><circle class="cls-1" cx="52.4" cy="52.27" r="51.27"/><ellipse class="cls-2" cx="51.88" cy="51.66" rx="50.13" ry="50.34"/><path class="cls-1" d="M22.73,94c-.58,0-5.19-3-6.94-4.59A27,27,0,0,1,11,83.49q.94-2,2.26-5.25t3.2-8l4.51-11.44Q23.55,52.11,27,43.2q2.2-5.67,3.62-9.55T33.05,26Q34,22.32,35,17.8T37.2,6.36a17.39,17.39,0,0,1,8,3.88,29.74,29.74,0,0,1,6.24,7.35,28.18,28.18,0,0,0-2.68,4.46q-1.52,3-3.41,7.19l-4.2,9.34q-2.31,5.14-4.83,10.91a206.3,206.3,0,0,0-8.92,23C25.27,79.49,23.92,87.5,22.73,94ZM38.25,51q6.51-9.65,12.85-17.79a164.85,164.85,0,0,1,12.12-14A70.94,70.94,0,0,1,73.82,10q4.83-3.25,8.39-3.25a5.64,5.64,0,0,1,3,1,13.81,13.81,0,0,1,3,2.73c.94,1.12,1.71,6.17,1.71,6.17L91.2,18S83,21.14,78.8,23.41a88.19,88.19,0,0,0-12,7.87A100,100,0,0,0,55.93,41.2a90.65,90.65,0,0,0-9.39,11.65q1.68,4.3,4.14,9.18a104.22,104.22,0,0,0,5.4,9.44,74.38,74.38,0,0,0,6.3,8.45,34.35,34.35,0,0,0,6.82,6.19,6.38,6.38,0,0,1-1.78,2.2,22.64,22.64,0,0,1-2.73,1.94,14.68,14.68,0,0,1-3.1,1.42,9.85,9.85,0,0,1-3,.52,6.72,6.72,0,0,1-5-2.57,31.09,31.09,0,0,1-4.67-7.76A134.79,134.79,0,0,1,44,69Q41.39,61.24,38.25,51Z"/><path class="cls-3" d="M20.92,93.06a16.55,16.55,0,0,1-7-3.82,27.41,27.41,0,0,1-4.9-6q1-2,2.29-5.33t3.25-8.15l4.58-11.61q2.66-6.76,6.18-15.82Q27.6,36.58,29,32.64t2.45-7.72q1-3.78,2-8.36T35.69,5A17.65,17.65,0,0,1,43.84,8.9a30.18,30.18,0,0,1,6.34,7.46,28.71,28.71,0,0,0-2.72,4.53q-1.55,3-3.46,7.3l-4.26,9.48q-2.34,5.22-4.9,11.08A209.46,209.46,0,0,0,25.79,72.1,178.47,178.47,0,0,0,20.92,93.06ZM36.76,50.22q6.6-9.8,13-18.05A167.31,167.31,0,0,1,62.1,17.95,72.08,72.08,0,0,1,72.86,8.68q4.9-3.3,8.52-3.3a5.72,5.72,0,0,1,3,1.07A14,14,0,0,1,87.5,9.22a17.67,17.67,0,0,1,2.4,3.67,8.64,8.64,0,0,1,1,3.78,75,75,0,0,0-12.94,5.59,89.45,89.45,0,0,0-12.14,8A101.36,101.36,0,0,0,54.7,40.31a91.89,91.89,0,0,0-9.53,11.82q1.7,4.37,4.21,9.32A106,106,0,0,0,54.86,71a79.47,79.47,0,0,0,6.32,8.91c2.27,2.63,4.27,5.07,6.61,6.63,0,.26-.58.84-1.43,1.55a23.12,23.12,0,0,1-2.77,2,14.93,14.93,0,0,1-3.14,1.44,10,10,0,0,1-3,.53,6.83,6.83,0,0,1-5.11-2.61,31.57,31.57,0,0,1-4.74-7.88,136.81,136.81,0,0,1-5-13.1Q39.95,60.65,36.76,50.22Z"/></svg>