<svg id="Layer_1" data-name="Layer 1" xmlns="http://www.w3.org/2000/svg" viewBox="0 0 105 105"><defs><style>.cls-1{fill:#2a664c;}.cls-2{fill:#adadad;}.cls-3{fill:#fff;}</style></defs><title>logo-v1</title><circle class="cls-1" cx="52" cy="52" r="50"/><path class="cls-2" d="M23.32,93c-.56,0-5-2.93-6.75-4.46a26.23,26.23,0,0,1-4.69-5.76q.92-1.94,2.19-5.1t3.11-7.8l4.39-11.12q2.55-6.48,5.92-15.15,2.14-5.51,3.52-9.28t2.35-7.39q1-3.62,1.89-8T37.38,7.77a16.9,16.9,0,0,1,7.8,3.77,28.91,28.91,0,0,1,6.07,7.14A27.39,27.39,0,0,0,48.65,23q-1.48,2.91-3.31,7l-4.08,9.08q-2.24,5-4.69,10.61A200.53,200.53,0,0,0,27.9,72.08C25.79,78.85,24.48,86.64,23.32,93ZM38.4,51.12q6.32-9.38,12.5-17.29A160.25,160.25,0,0,1,62.68,20.21,69,69,0,0,1,73,11.34q4.69-3.16,8.16-3.16A5.49,5.49,0,0,1,84,9.2a13.42,13.42,0,0,1,3,2.65c.92,1.09,1.67,6,1.67,6L89.88,19s-8,3.09-12.05,5.3A85.73,85.73,0,0,0,66.2,32a97.19,97.19,0,0,0-10.61,9.64A88.12,88.12,0,0,0,46.46,53q1.63,4.18,4,8.92a101.31,101.31,0,0,0,5.25,9.18,72.3,72.3,0,0,0,6.12,8.21,33.39,33.39,0,0,0,6.63,6,6.2,6.2,0,0,1-1.73,2.14,22,22,0,0,1-2.65,1.89,14.27,14.27,0,0,1-3,1.38,9.58,9.58,0,0,1-2.91.51,6.54,6.54,0,0,1-4.9-2.5,30.22,30.22,0,0,1-4.54-7.55A131,131,0,0,1,44,68.61Q41.46,61.12,38.4,51.12Z"/><path class="cls-3" d="M21.6,92a16.16,16.16,0,0,1-6.79-3.73A26.76,26.76,0,0,1,10,82.44q.94-2,2.24-5.2t3.17-8l4.47-11.34q2.6-6.6,6-15.44,2.18-5.62,3.59-9.46t2.39-7.54q1-3.69,1.92-8.16T36,6a17.24,17.24,0,0,1,8,3.85,29.47,29.47,0,0,1,6.19,7.28,28,28,0,0,0-2.65,4.42q-1.51,3-3.38,7.12L40,37.93Q37.69,43,35.2,48.74a204.55,204.55,0,0,0-8.84,22.83A174.29,174.29,0,0,0,21.6,92ZM37.07,50.2q6.45-9.57,12.74-17.63a163.39,163.39,0,0,1,12-13.88,70.39,70.39,0,0,1,10.5-9q4.78-3.22,8.32-3.22a5.59,5.59,0,0,1,3,1,13.69,13.69,0,0,1,3,2.7A17.26,17.26,0,0,1,89,13.75a8.44,8.44,0,0,1,.94,3.69A73.26,73.26,0,0,0,77.27,22.9a87.35,87.35,0,0,0-11.86,7.8,99,99,0,0,0-10.82,9.83,89.74,89.74,0,0,0-9.31,11.54q1.66,4.27,4.11,9.1a103.48,103.48,0,0,0,5.36,9.36,77.6,77.6,0,0,0,6.17,8.7c2.22,2.57,4.17,5,6.46,6.48,0,.25-.56.82-1.39,1.51a22.57,22.57,0,0,1-2.7,1.92,14.58,14.58,0,0,1-3.07,1.4,9.73,9.73,0,0,1-3,.52,6.67,6.67,0,0,1-5-2.55,30.83,30.83,0,0,1-4.63-7.7A133.61,133.61,0,0,1,42.74,68Q40.19,60.39,37.07,50.2Z"/></svg>